<svg width="276" height="200" viewBox="0 0 276 200" fill="none" xmlns="http://www.w3.org/2000/svg">
<g clip-path="url(#clip0_82_604)">
<path d="M195.676 181.643H189.495V181.82H195.676V181.643Z" fill="#EBEBEB"/>
<path d="M38.9559 174.302H34.4536V174.48H38.9559V174.302Z" fill="#EBEBEB"/>
<path d="M137.907 200C214.071 200 275.814 196.395 275.814 191.948C275.814 187.502 214.071 183.897 137.907 183.897C61.743 183.897 0 187.502 0 191.948C0 196.395 61.743 200 137.907 200Z" fill="#F5F5F5"/>
<path d="M218.6 1.22646e-05H195.441L179.082 187.24H202.241C205.491 187.177 208.606 185.927 210.998 183.726C213.391 181.525 214.895 178.525 215.228 175.291L229.517 11.9421C229.683 10.4201 229.523 8.88027 229.047 7.42508C228.572 5.96988 227.791 4.63278 226.758 3.50283C225.725 2.37289 224.463 1.47605 223.056 0.872052C221.65 0.268056 220.13 -0.029226 218.6 1.22646e-05Z" fill="#407BFF"/>
<path d="M213.877 0.0001515H135.496C132.245 0.061037 129.129 1.30907 126.735 3.50893C124.342 5.70879 122.835 8.70844 122.501 11.9423L108.212 175.291C108.047 176.812 108.208 178.35 108.683 179.804C109.158 181.258 109.937 182.595 110.968 183.725C112 184.855 113.259 185.752 114.664 186.358C116.068 186.965 117.586 187.265 119.115 187.24H197.489C200.735 187.171 203.845 185.918 206.232 183.718C208.62 181.517 210.122 178.521 210.456 175.291L224.745 11.9423C224.91 10.4245 224.751 8.88897 224.278 7.43732C223.806 5.98567 223.03 4.65106 222.002 3.52193C220.975 2.3928 219.719 1.49491 218.318 0.887765C216.917 0.280616 215.403 -0.0219381 213.877 0.0001515Z" fill="#407BFF"/>
<path opacity="0.3" d="M213.877 0.0001515H135.496C132.245 0.061037 129.129 1.30907 126.735 3.50893C124.342 5.70879 122.835 8.70844 122.501 11.9423L108.212 175.291C108.047 176.812 108.208 178.35 108.683 179.804C109.158 181.258 109.937 182.595 110.968 183.725C112 184.855 113.259 185.752 114.664 186.358C116.068 186.965 117.586 187.265 119.115 187.24H197.489C200.735 187.171 203.845 185.918 206.232 183.718C208.62 181.517 210.122 178.521 210.456 175.291L224.745 11.9423C224.91 10.4245 224.751 8.88897 224.278 7.43732C223.806 5.98567 223.03 4.65106 222.002 3.52193C220.975 2.3928 219.719 1.49491 218.318 0.887765C216.917 0.280616 215.403 -0.0219381 213.877 0.0001515Z" fill="white"/>
<path opacity="0.4" d="M213.542 3.82637H192.873C192.257 3.83141 191.656 4.02118 191.149 4.37114C190.642 4.7211 190.252 5.21517 190.028 5.78946C189.213 7.89896 187.788 9.71775 185.934 11.0137C184.081 12.3097 181.884 13.0241 179.622 13.0657H167.431C165.302 13.1086 163.224 12.4076 161.556 11.0833C159.887 9.75909 158.733 7.89453 158.292 5.81079C158.174 5.24702 157.863 4.74217 157.412 4.38365C156.961 4.02514 156.399 3.83555 155.824 3.84771H135.161C132.952 3.88677 130.834 4.73422 129.207 6.22972C127.581 7.72522 126.559 9.76503 126.335 11.9632L112.038 175.312C111.924 176.346 112.031 177.393 112.353 178.382C112.675 179.372 113.205 180.281 113.906 181.05C114.608 181.819 115.465 182.429 116.421 182.84C117.377 183.251 118.409 183.454 119.45 183.434H197.831C200.041 183.394 202.159 182.545 203.785 181.048C205.412 179.551 206.434 177.511 206.657 175.312L220.947 11.9632C221.063 10.9284 220.958 9.88071 220.637 8.89001C220.316 7.89931 219.788 6.98844 219.087 6.21827C218.386 5.44809 217.529 4.83634 216.573 4.42386C215.617 4.01139 214.584 3.80769 213.542 3.82637Z" fill="white"/>
<path d="M194.011 92.5852H139.159C138.782 92.5914 138.408 92.5173 138.061 92.368C137.715 92.2187 137.405 91.9975 137.15 91.7191C136.896 91.4406 136.704 91.1113 136.587 90.7529C136.469 90.3946 136.43 90.0154 136.47 89.6405L136.747 86.4968C136.829 85.6996 137.2 84.9599 137.789 84.4174C138.379 83.8749 139.147 83.5671 139.948 83.5521H194.808C195.185 83.5459 195.559 83.6199 195.905 83.7693C196.251 83.9186 196.562 84.1398 196.816 84.4183C197.07 84.6967 197.262 85.026 197.38 85.3843C197.497 85.7427 197.537 86.1219 197.496 86.4968L197.226 89.6405C197.143 90.4395 196.77 91.1802 196.177 91.7228C195.585 92.2653 194.814 92.5721 194.011 92.5852Z" fill="white"/>
<path d="M192.83 106.099H137.971C137.594 106.105 137.22 106.031 136.874 105.882C136.528 105.732 136.218 105.511 135.965 105.232C135.711 104.954 135.52 104.624 135.403 104.266C135.287 103.908 135.248 103.529 135.289 103.154L135.56 100.01C135.643 99.2139 136.014 98.4751 136.603 97.9328C137.192 97.3906 137.96 97.0823 138.76 97.0658H193.62C193.997 97.0596 194.371 97.1336 194.717 97.2829C195.063 97.4323 195.374 97.6535 195.628 97.9319C195.882 98.2104 196.075 98.5397 196.192 98.898C196.309 99.2564 196.349 99.6355 196.309 100.01L196.031 103.154C195.948 103.951 195.577 104.69 194.988 105.232C194.398 105.774 193.631 106.082 192.83 106.099Z" fill="white"/>
<path opacity="0.1" d="M177.346 6.8848C177.256 7.76995 176.844 8.59118 176.188 9.19288C175.533 9.79458 174.68 10.135 173.79 10.1495C173.372 10.157 172.957 10.0754 172.573 9.91008C172.189 9.74474 171.844 9.49947 171.562 9.1906C171.28 8.88173 171.067 8.51635 170.937 8.11877C170.808 7.72119 170.764 7.30052 170.81 6.8848C170.9 5.99966 171.312 5.17843 171.968 4.57672C172.623 3.97502 173.476 3.63465 174.366 3.62011C174.784 3.61257 175.199 3.6942 175.583 3.85954C175.967 4.02488 176.312 4.27014 176.594 4.57901C176.876 4.88788 177.089 5.25327 177.218 5.65085C177.348 6.04843 177.392 6.46908 177.346 6.8848Z" fill="black"/>
<path opacity="0.1" d="M175.867 6.88504C175.817 7.36824 175.591 7.81643 175.234 8.14523C174.876 8.47403 174.411 8.66078 173.925 8.67032C173.696 8.67476 173.469 8.63034 173.259 8.54002C173.049 8.4497 172.861 8.31557 172.706 8.14657C172.552 7.97758 172.436 7.77763 172.365 7.56008C172.294 7.34253 172.271 7.11239 172.296 6.88504C172.345 6.40126 172.57 5.9522 172.928 5.62311C173.286 5.29401 173.752 5.10779 174.238 5.09978C174.466 5.09648 174.693 5.14168 174.903 5.23239C175.112 5.3231 175.3 5.45724 175.454 5.62597C175.608 5.79471 175.724 5.99418 175.796 6.21122C175.867 6.42826 175.891 6.65792 175.867 6.88504Z" fill="black"/>
<g opacity="0.8">
<path opacity="0.8" d="M203.891 12.3335C203.768 12.3352 203.646 12.3108 203.534 12.262C203.421 12.2132 203.32 12.141 203.237 12.0502C203.154 11.9595 203.092 11.8522 203.054 11.7355C203.016 11.6188 203.003 11.4954 203.016 11.3733L203.172 9.62357C203.198 9.36502 203.319 9.12508 203.51 8.94936C203.702 8.77364 203.951 8.6744 204.211 8.67048C204.333 8.66889 204.454 8.69308 204.566 8.74148C204.678 8.78989 204.779 8.8614 204.861 8.95136C204.944 9.04132 205.007 9.1477 205.045 9.26354C205.084 9.37937 205.098 9.50206 205.086 9.62357L204.929 11.3733C204.903 11.6325 204.783 11.8733 204.592 12.0502C204.401 12.2271 204.151 12.3278 203.891 12.3335Z" fill="white"/>
<path opacity="0.8" d="M211.544 12.3333C211.421 12.335 211.299 12.3106 211.187 12.2618C211.074 12.213 210.973 12.1408 210.89 12.05C210.808 11.9593 210.745 11.852 210.707 11.7353C210.669 11.6186 210.656 11.4951 210.669 11.3731L211.032 7.26908C211.058 7.01053 211.178 6.77059 211.37 6.59487C211.561 6.41915 211.81 6.31991 212.07 6.31599C212.192 6.3144 212.313 6.33859 212.425 6.38699C212.538 6.43539 212.638 6.50691 212.721 6.59687C212.803 6.68683 212.866 6.7932 212.905 6.90903C212.943 7.02487 212.957 7.14756 212.945 7.26908L212.582 11.3731C212.556 11.6323 212.436 11.8731 212.245 12.05C212.054 12.2268 211.804 12.3276 211.544 12.3333Z" fill="white"/>
<path opacity="0.8" d="M207.717 12.3331C207.595 12.3348 207.473 12.3104 207.36 12.2616C207.248 12.2127 207.147 12.1406 207.064 12.0498C206.981 11.9591 206.919 11.8518 206.88 11.7351C206.842 11.6184 206.829 11.4949 206.842 11.3729L207.099 8.44956C207.125 8.18912 207.246 7.94738 207.438 7.77033C207.631 7.59328 207.882 7.49328 208.144 7.48935C208.267 7.48752 208.388 7.51186 208.5 7.56075C208.613 7.60964 208.713 7.68195 208.795 7.77285C208.878 7.86375 208.939 7.97114 208.977 8.08784C209.014 8.20455 209.026 8.32787 209.012 8.44956L208.756 11.3729C208.73 11.6321 208.61 11.8729 208.418 12.0497C208.227 12.2266 207.978 12.3274 207.717 12.3331Z" fill="white"/>
</g>
<g opacity="0.8">
<path opacity="0.8" d="M138.362 12.3335H133.554C133.485 12.335 133.416 12.3217 133.352 12.2943C133.289 12.267 133.232 12.2263 133.185 12.1751C133.139 12.1238 133.104 12.0632 133.083 11.9973C133.062 11.9314 133.055 11.8617 133.063 11.793L133.284 9.21108C133.299 9.0645 133.368 8.92866 133.476 8.82911C133.585 8.72956 133.727 8.67317 133.874 8.67052H138.682C138.751 8.66902 138.82 8.68239 138.884 8.70972C138.947 8.73706 139.004 8.77771 139.051 8.82896C139.097 8.8802 139.132 8.94083 139.153 9.00675C139.174 9.07267 139.181 9.14235 139.173 9.21108L138.945 11.793C138.933 11.9395 138.866 12.0762 138.758 12.1762C138.65 12.2762 138.509 12.3323 138.362 12.3335Z" fill="white"/>
<path opacity="0.8" d="M140.588 11.6296C140.519 11.631 140.45 11.6176 140.386 11.5903C140.322 11.563 140.265 11.5225 140.218 11.4714C140.17 11.4203 140.135 11.3598 140.113 11.2939C140.091 11.228 140.083 11.1582 140.09 11.089L140.197 9.90835C140.211 9.76117 140.279 9.62444 140.388 9.52459C140.497 9.42475 140.639 9.36888 140.787 9.36779C140.857 9.36629 140.925 9.37966 140.989 9.40699C141.052 9.43432 141.109 9.47498 141.156 9.52622C141.202 9.57746 141.237 9.63809 141.258 9.70402C141.28 9.76994 141.286 9.83962 141.278 9.90835L141.179 11.089C141.163 11.2356 141.094 11.3715 140.986 11.471C140.877 11.5706 140.736 11.627 140.588 11.6296Z" fill="white"/>
</g>
<path d="M184.973 71.9161C194.544 62.7537 195.499 48.2181 187.105 39.45C178.711 30.6819 164.148 31.0015 154.577 40.1639C145.005 49.3263 144.051 63.8619 152.445 72.63C160.838 81.3982 175.402 81.0786 184.973 71.9161Z" fill="white"/>
<path d="M169.857 55.1582C163.825 55.1582 158.725 57.4556 158.292 62.4415L157.808 67.9823H179.665L180.149 62.4415C180.582 57.4556 175.895 55.1582 169.857 55.1582Z" fill="#407BFF"/>
<path d="M170.056 52.8755C172.858 52.8755 174.153 50.6066 174.394 47.8042C174.636 45.0018 173.747 42.7329 170.945 42.7329C168.143 42.7329 166.855 45.0089 166.606 47.8042C166.357 50.5995 167.253 52.8755 170.056 52.8755Z" fill="#407BFF"/>
<path d="M191.508 87.8765C190.021 87.8765 188.762 88.4455 188.663 89.676L188.542 91.0487H193.94L194.061 89.676C194.161 88.4455 193.001 87.8765 191.508 87.8765Z" fill="#407BFF"/>
<path d="M191.557 87.3147C192.269 87.3147 192.567 86.7528 192.631 86.0628C192.695 85.3729 192.468 84.811 191.778 84.811C191.088 84.811 190.768 85.3729 190.704 86.0628C190.64 86.7528 190.867 87.3147 191.557 87.3147Z" fill="#407BFF"/>
<path d="M174.892 119.613H153.555C152.976 119.624 152.402 119.511 151.87 119.282C151.339 119.053 150.862 118.714 150.472 118.287C150.081 117.86 149.787 117.354 149.607 116.804C149.427 116.254 149.367 115.672 149.429 115.097C149.556 113.874 150.126 112.739 151.031 111.907C151.936 111.075 153.115 110.603 154.344 110.58H175.682C176.26 110.571 176.834 110.684 177.365 110.914C177.896 111.143 178.372 111.482 178.762 111.909C179.152 112.336 179.447 112.841 179.627 113.39C179.808 113.94 179.869 114.522 179.807 115.097C179.682 116.32 179.113 117.456 178.207 118.288C177.302 119.12 176.122 119.592 174.892 119.613Z" fill="#407BFF"/>
<path d="M172.311 169.985H149.472C148.859 170.001 148.25 169.886 147.686 169.646C147.122 169.406 146.616 169.047 146.203 168.595C145.79 168.142 145.48 167.605 145.293 167.022C145.105 166.438 145.046 165.821 145.119 165.212L146.577 148.554C146.707 147.262 147.307 146.063 148.263 145.183C149.219 144.303 150.464 143.805 151.762 143.782H174.608C175.219 143.771 175.825 143.891 176.387 144.133C176.948 144.374 177.451 144.733 177.863 145.185C178.275 145.636 178.586 146.17 178.775 146.751C178.964 147.332 179.028 147.947 178.961 148.554L177.503 165.212C177.369 166.505 176.768 167.703 175.811 168.582C174.855 169.462 173.61 169.96 172.311 169.985Z" fill="#407BFF"/>
<g opacity="0.6">
<path opacity="0.6" d="M165.269 152.758C165.306 152.395 165.266 152.027 165.151 151.68C165.036 151.334 164.848 151.015 164.601 150.746C164.353 150.477 164.052 150.264 163.716 150.12C163.38 149.977 163.017 149.906 162.652 149.913C161.873 149.924 161.126 150.22 160.551 150.744C159.976 151.268 159.612 151.984 159.529 152.758C159.484 153.191 159.548 153.628 159.716 154.029C159.884 154.431 160.15 154.784 160.489 155.055L159.991 160.795C159.967 161.013 159.989 161.233 160.057 161.441C160.125 161.649 160.236 161.84 160.383 162.002C160.531 162.164 160.711 162.292 160.912 162.378C161.113 162.464 161.33 162.507 161.549 162.502C162.013 162.493 162.456 162.314 162.797 161.999C163.138 161.685 163.352 161.257 163.398 160.795L163.903 155.055C164.284 154.795 164.604 154.454 164.84 154.058C165.076 153.661 165.222 153.217 165.269 152.758Z" fill="white"/>
</g>
<path d="M174.807 147.253H171.862L172.574 139.009C172.698 137.865 172.577 136.707 172.22 135.614C171.863 134.52 171.277 133.514 170.501 132.664C169.726 131.814 168.778 131.138 167.722 130.682C166.665 130.226 165.524 130 164.373 130.019C161.927 130.066 159.584 131.007 157.784 132.663C155.984 134.319 154.851 136.576 154.6 139.009L153.889 147.253H150.944L151.655 139.009C151.987 135.78 153.489 132.784 155.877 130.587C158.266 128.389 161.377 127.142 164.622 127.081C166.149 127.055 167.665 127.354 169.067 127.959C170.47 128.563 171.728 129.46 172.758 130.588C173.788 131.716 174.566 133.05 175.041 134.502C175.516 135.954 175.676 137.49 175.511 139.009L174.807 147.253Z" fill="#407BFF"/>
<path d="M191.87 100.501L191.963 99.6977C191.982 99.5114 191.961 99.3232 191.903 99.1454C191.844 98.9676 191.748 98.8042 191.622 98.6659C191.496 98.5276 191.342 98.4175 191.17 98.3428C190.998 98.2681 190.813 98.2305 190.626 98.2325C190.227 98.2407 189.845 98.3941 189.552 98.6639C189.259 98.9337 189.074 99.3013 189.032 99.6977L188.961 100.487C188.802 100.492 188.65 100.554 188.533 100.663C188.417 100.771 188.344 100.919 188.328 101.078L188.143 103.211C188.134 103.286 188.141 103.362 188.164 103.433C188.187 103.505 188.225 103.571 188.275 103.626C188.326 103.682 188.388 103.725 188.458 103.754C188.527 103.784 188.602 103.797 188.677 103.795H191.607C191.766 103.792 191.918 103.731 192.035 103.623C192.151 103.516 192.224 103.369 192.24 103.211L192.425 101.078C192.431 101.002 192.421 100.926 192.396 100.855C192.37 100.784 192.33 100.719 192.278 100.664C192.225 100.61 192.162 100.567 192.092 100.539C192.021 100.511 191.946 100.498 191.87 100.501ZM190.54 98.6095C190.681 98.6078 190.821 98.6359 190.951 98.6919C191.08 98.748 191.196 98.8308 191.292 98.9348C191.387 99.0389 191.459 99.1619 191.504 99.2958C191.548 99.4297 191.564 99.5715 191.55 99.7119L191.479 100.501H189.274L189.345 99.7119C189.376 99.4143 189.515 99.1382 189.735 98.9352C189.955 98.7323 190.241 98.6165 190.54 98.6095Z" fill="#407BFF"/>
<path d="M147.758 101.348L146.734 101.135C146.705 101.129 146.678 101.116 146.655 101.099C146.632 101.081 146.613 101.058 146.6 101.032C146.587 101.006 146.58 100.978 146.58 100.948C146.58 100.919 146.586 100.891 146.598 100.864L147.025 99.8542C147.043 99.8106 147.045 99.7621 147.03 99.7173C147.015 99.6726 146.985 99.6344 146.945 99.6097C146.905 99.5849 146.858 99.5752 146.811 99.5822C146.765 99.5892 146.722 99.6125 146.691 99.648L145.916 100.445C145.897 100.468 145.873 100.487 145.846 100.501C145.819 100.514 145.789 100.521 145.759 100.521C145.729 100.521 145.699 100.514 145.672 100.501C145.645 100.487 145.621 100.468 145.603 100.445L144.97 99.648C144.835 99.4773 144.543 99.648 144.593 99.8542L144.842 100.864C144.849 100.894 144.85 100.924 144.845 100.954C144.84 100.984 144.828 101.013 144.812 101.038C144.795 101.064 144.773 101.085 144.748 101.102C144.722 101.118 144.694 101.13 144.664 101.135L143.604 101.348C143.376 101.391 143.348 101.711 143.568 101.753L144.593 101.967C144.621 101.972 144.648 101.984 144.671 102.002C144.694 102.02 144.713 102.043 144.725 102.069C144.738 102.096 144.744 102.125 144.743 102.154C144.742 102.183 144.735 102.211 144.721 102.237L144.308 103.254C144.29 103.298 144.289 103.346 144.303 103.391C144.318 103.436 144.348 103.474 144.388 103.499C144.428 103.523 144.476 103.533 144.522 103.526C144.569 103.519 144.611 103.496 144.642 103.46L145.418 102.664C145.438 102.642 145.462 102.625 145.489 102.613C145.516 102.601 145.545 102.595 145.574 102.595C145.604 102.595 145.633 102.601 145.66 102.613C145.687 102.625 145.711 102.642 145.731 102.664L146.364 103.46C146.499 103.631 146.79 103.46 146.734 103.254L146.485 102.244C146.474 102.184 146.488 102.122 146.522 102.071C146.557 102.021 146.61 101.986 146.67 101.974L147.729 101.76C147.95 101.711 147.978 101.391 147.758 101.348Z" fill="#263238"/>
<path d="M154.486 101.348L153.462 101.135C153.434 101.129 153.407 101.116 153.384 101.099C153.361 101.081 153.342 101.058 153.329 101.032C153.316 101.006 153.309 100.978 153.309 100.948C153.308 100.919 153.314 100.891 153.327 100.864L153.754 99.8542C153.771 99.8106 153.773 99.7621 153.759 99.7173C153.744 99.6726 153.714 99.6344 153.674 99.6097C153.634 99.5849 153.586 99.5752 153.54 99.5822C153.493 99.5892 153.45 99.6125 153.419 99.648L152.644 100.445C152.626 100.468 152.602 100.487 152.575 100.501C152.548 100.514 152.518 100.521 152.488 100.521C152.458 100.521 152.428 100.514 152.401 100.501C152.374 100.487 152.35 100.468 152.331 100.445L151.698 99.648C151.563 99.4773 151.271 99.648 151.328 99.8542L151.577 100.864C151.583 100.894 151.583 100.925 151.577 100.955C151.571 100.985 151.559 101.013 151.542 101.039C151.525 101.064 151.503 101.085 151.477 101.102C151.451 101.118 151.422 101.129 151.392 101.135L150.333 101.348C150.105 101.391 150.076 101.711 150.297 101.753L151.321 101.967C151.35 101.973 151.377 101.985 151.4 102.002C151.423 102.02 151.441 102.043 151.455 102.069C151.468 102.095 151.474 102.124 151.475 102.153C151.475 102.182 151.469 102.211 151.456 102.237L151.03 103.247C151.012 103.291 151.01 103.339 151.025 103.384C151.039 103.429 151.069 103.467 151.109 103.492C151.15 103.516 151.197 103.526 151.244 103.519C151.29 103.512 151.333 103.489 151.364 103.453L152.139 102.657C152.159 102.635 152.183 102.618 152.21 102.606C152.237 102.594 152.266 102.588 152.296 102.588C152.325 102.588 152.354 102.594 152.381 102.606C152.408 102.618 152.432 102.635 152.452 102.657L153.085 103.453C153.22 103.624 153.512 103.453 153.462 103.247L153.213 102.237C153.207 102.208 153.207 102.177 153.212 102.148C153.218 102.118 153.229 102.09 153.246 102.065C153.262 102.04 153.284 102.018 153.308 102.001C153.333 101.984 153.361 101.973 153.391 101.967L154.451 101.753C154.678 101.711 154.707 101.391 154.486 101.348Z" fill="#263238"/>
<path d="M161.215 101.348L160.198 101.135C160.169 101.13 160.141 101.119 160.117 101.101C160.093 101.084 160.073 101.061 160.06 101.034C160.047 101.008 160.04 100.979 160.041 100.949C160.041 100.919 160.049 100.89 160.063 100.864L160.489 99.8543C160.517 99.8091 160.525 99.7548 160.512 99.7034C160.5 99.6521 160.467 99.6078 160.422 99.5805C160.377 99.5531 160.322 99.5449 160.271 99.5576C160.22 99.5702 160.175 99.6028 160.148 99.6481L159.38 100.445C159.361 100.468 159.336 100.488 159.308 100.501C159.281 100.514 159.25 100.521 159.22 100.521C159.189 100.521 159.159 100.514 159.131 100.501C159.104 100.488 159.079 100.468 159.06 100.445L158.427 99.6481C158.292 99.4774 158 99.6481 158.057 99.8543L158.306 100.864C158.312 100.894 158.312 100.924 158.307 100.954C158.301 100.983 158.29 101.011 158.273 101.037C158.257 101.062 158.235 101.083 158.21 101.1C158.186 101.117 158.158 101.129 158.128 101.135L157.068 101.348C156.841 101.391 156.812 101.711 157.033 101.753L158.05 101.967C158.078 101.973 158.105 101.985 158.128 102.003C158.151 102.02 158.17 102.043 158.183 102.069C158.196 102.095 158.203 102.124 158.203 102.153C158.204 102.182 158.197 102.211 158.185 102.237L157.758 103.247C157.731 103.292 157.723 103.347 157.735 103.398C157.748 103.449 157.78 103.494 157.826 103.521C157.871 103.548 157.925 103.556 157.977 103.544C158.028 103.531 158.072 103.499 158.1 103.453L158.868 102.657C158.888 102.635 158.912 102.618 158.939 102.606C158.966 102.594 158.995 102.588 159.024 102.588C159.054 102.588 159.083 102.594 159.11 102.606C159.137 102.618 159.161 102.635 159.181 102.657L159.821 103.453C159.956 103.624 160.248 103.453 160.191 103.247L159.942 102.237C159.931 102.178 159.944 102.117 159.977 102.066C160.01 102.016 160.061 101.98 160.12 101.967L161.179 101.753C161.378 101.711 161.435 101.391 161.215 101.348Z" fill="#263238"/>
<path d="M167.951 101.348L166.926 101.135C166.898 101.129 166.871 101.116 166.848 101.099C166.825 101.081 166.806 101.058 166.793 101.032C166.78 101.006 166.773 100.978 166.773 100.948C166.772 100.919 166.779 100.891 166.791 100.864L167.218 99.8542C167.236 99.8106 167.237 99.7621 167.223 99.7173C167.208 99.6726 167.178 99.6344 167.138 99.6097C167.098 99.5849 167.05 99.5752 167.004 99.5822C166.957 99.5892 166.915 99.6125 166.884 99.648L166.108 100.445C166.09 100.468 166.066 100.487 166.039 100.501C166.012 100.514 165.982 100.521 165.952 100.521C165.922 100.521 165.892 100.514 165.865 100.501C165.838 100.487 165.814 100.468 165.795 100.445L165.162 99.648C165.027 99.4773 164.736 99.648 164.785 99.8542L165.034 100.864C165.042 100.894 165.043 100.924 165.038 100.954C165.032 100.984 165.021 101.013 165.004 101.038C164.988 101.064 164.966 101.085 164.941 101.102C164.915 101.118 164.887 101.13 164.857 101.135L163.797 101.348C163.569 101.391 163.541 101.711 163.797 101.753L164.821 101.967C164.85 101.972 164.877 101.984 164.9 102.002C164.923 102.02 164.941 102.043 164.954 102.069C164.966 102.096 164.972 102.125 164.972 102.154C164.971 102.183 164.963 102.211 164.949 102.237L164.529 103.247C164.512 103.291 164.51 103.339 164.525 103.384C164.539 103.429 164.569 103.467 164.609 103.492C164.649 103.516 164.697 103.526 164.743 103.519C164.79 103.512 164.833 103.489 164.864 103.453L165.639 102.657C165.659 102.635 165.683 102.618 165.71 102.606C165.737 102.594 165.766 102.588 165.795 102.588C165.825 102.588 165.854 102.594 165.881 102.606C165.908 102.618 165.932 102.635 165.952 102.657L166.585 103.453C166.72 103.624 167.012 103.453 166.955 103.247L166.706 102.237C166.695 102.177 166.709 102.115 166.743 102.064C166.778 102.014 166.831 101.979 166.891 101.967L167.951 101.753C168.143 101.711 168.171 101.391 167.951 101.348Z" fill="#263238"/>
<path d="M174.679 101.348L173.655 101.135C173.626 101.129 173.6 101.116 173.576 101.099C173.553 101.081 173.535 101.058 173.522 101.032C173.509 101.006 173.502 100.978 173.501 100.948C173.501 100.919 173.507 100.891 173.52 100.864L173.946 99.8542C173.964 99.8106 173.966 99.7621 173.951 99.7173C173.937 99.6726 173.907 99.6344 173.867 99.6097C173.827 99.5849 173.779 99.5752 173.732 99.5822C173.686 99.5892 173.643 99.6125 173.612 99.648L172.837 100.445C172.818 100.468 172.795 100.487 172.767 100.501C172.74 100.514 172.711 100.521 172.68 100.521C172.65 100.521 172.621 100.514 172.593 100.501C172.566 100.487 172.543 100.468 172.524 100.445L171.891 99.648C171.756 99.4773 171.464 99.648 171.521 99.8542L171.77 100.864C171.776 100.894 171.776 100.925 171.77 100.955C171.764 100.985 171.752 101.013 171.735 101.039C171.718 101.064 171.696 101.085 171.67 101.102C171.644 101.118 171.615 101.129 171.585 101.135L170.525 101.348C170.298 101.391 170.269 101.711 170.49 101.753L171.514 101.967C171.542 101.973 171.569 101.985 171.592 102.002C171.615 102.02 171.634 102.043 171.647 102.069C171.66 102.095 171.667 102.124 171.668 102.153C171.668 102.182 171.662 102.211 171.649 102.237L171.222 103.247C171.205 103.291 171.203 103.339 171.217 103.384C171.232 103.429 171.262 103.467 171.302 103.492C171.342 103.516 171.39 103.526 171.436 103.519C171.483 103.512 171.526 103.489 171.557 103.453L172.332 102.657C172.352 102.635 172.376 102.618 172.403 102.606C172.43 102.594 172.459 102.588 172.488 102.588C172.518 102.588 172.547 102.594 172.574 102.606C172.601 102.618 172.625 102.635 172.645 102.657L173.278 103.453C173.413 103.624 173.705 103.453 173.655 103.247L173.406 102.237C173.4 102.208 173.399 102.177 173.405 102.148C173.411 102.118 173.422 102.09 173.438 102.065C173.455 102.04 173.476 102.018 173.501 102.001C173.526 101.984 173.554 101.973 173.584 101.967L174.644 101.753C174.892 101.711 174.892 101.391 174.679 101.348Z" fill="#263238"/>
<path d="M181.408 101.348L180.383 101.135C180.355 101.129 180.328 101.117 180.305 101.099C180.282 101.081 180.263 101.058 180.251 101.032C180.238 101.006 180.232 100.977 180.233 100.948C180.234 100.918 180.241 100.89 180.255 100.864L180.682 99.8543C180.696 99.8319 180.705 99.807 180.709 99.7812C180.712 99.7553 180.711 99.7288 180.705 99.7034C180.699 99.678 180.687 99.654 180.672 99.6329C180.656 99.6119 180.637 99.594 180.615 99.5805C180.592 99.5669 180.567 99.558 180.541 99.554C180.515 99.5501 180.489 99.5513 180.464 99.5576C180.438 99.5638 180.414 99.575 180.393 99.5906C180.372 99.6061 180.354 99.6256 180.341 99.6481L179.572 100.445C179.553 100.468 179.529 100.488 179.501 100.501C179.473 100.514 179.443 100.521 179.412 100.521C179.382 100.521 179.352 100.514 179.324 100.501C179.296 100.488 179.272 100.468 179.252 100.445L178.619 99.6481C178.484 99.4774 178.193 99.6481 178.25 99.8543L178.498 100.864C178.505 100.894 178.505 100.924 178.499 100.954C178.494 100.983 178.482 101.011 178.466 101.037C178.449 101.062 178.428 101.083 178.403 101.1C178.378 101.117 178.35 101.129 178.321 101.135L177.261 101.348C177.033 101.391 177.005 101.711 177.225 101.753L178.242 101.967C178.271 101.973 178.298 101.985 178.321 102.003C178.344 102.02 178.363 102.043 178.376 102.069C178.389 102.095 178.396 102.124 178.396 102.153C178.396 102.182 178.39 102.211 178.378 102.237L177.951 103.247C177.923 103.292 177.915 103.347 177.928 103.398C177.941 103.449 177.973 103.494 178.018 103.521C178.064 103.548 178.118 103.556 178.169 103.544C178.221 103.531 178.265 103.499 178.292 103.453L179.06 102.657C179.08 102.635 179.105 102.618 179.131 102.606C179.158 102.594 179.187 102.588 179.217 102.588C179.246 102.588 179.275 102.594 179.302 102.606C179.329 102.618 179.353 102.635 179.373 102.657L180.006 103.453C180.04 103.491 180.084 103.515 180.133 103.524C180.183 103.533 180.233 103.524 180.277 103.5C180.321 103.476 180.355 103.438 180.374 103.392C180.394 103.346 180.397 103.295 180.383 103.247L180.134 102.237C180.124 102.178 180.136 102.117 180.169 102.066C180.202 102.016 180.254 101.98 180.312 101.967L181.372 101.753C181.6 101.711 181.628 101.391 181.408 101.348Z" fill="#263238"/>
<path d="M165.184 86.6174H152.552C152.164 86.624 151.792 86.7724 151.507 87.0345C151.221 87.2966 151.041 87.6542 151.001 88.0399C150.981 88.2214 151 88.4051 151.056 88.5788C151.113 88.7525 151.206 88.912 151.329 89.0468C151.452 89.1815 151.603 89.2883 151.771 89.36C151.939 89.4317 152.12 89.4666 152.303 89.4624H164.935C165.322 89.4558 165.694 89.3074 165.98 89.0453C166.266 88.7832 166.445 88.4255 166.485 88.0399C166.504 87.8586 166.485 87.6754 166.428 87.5022C166.371 87.3291 166.278 87.17 166.155 87.0355C166.032 86.9011 165.882 86.7942 165.714 86.7221C165.547 86.6501 165.366 86.6143 165.184 86.6174Z" fill="#263238"/>
<path d="M178.015 86.6177H170.682C170.295 86.6245 169.924 86.7731 169.639 87.0354C169.355 87.2976 169.177 87.6552 169.138 88.0402C169.118 88.2211 169.137 88.4042 169.193 88.5774C169.249 88.7505 169.341 88.9097 169.464 89.0443C169.586 89.1789 169.736 89.2859 169.903 89.3581C170.07 89.4302 170.251 89.4659 170.433 89.4627H177.737C178.124 89.4559 178.495 89.3073 178.78 89.0451C179.064 88.7828 179.243 88.4252 179.281 88.0402C179.301 87.8617 179.283 87.681 179.229 87.5099C179.174 87.3387 179.084 87.1809 178.965 87.0468C178.846 86.9126 178.699 86.8051 178.536 86.7312C178.372 86.6572 178.194 86.6186 178.015 86.6177Z" fill="#263238"/>
<path d="M187.695 151.094C183.23 152.794 179.2 155.467 175.895 158.918C173.889 157.36 171.497 156.376 168.975 156.073L168.64 156.023L168.498 157.701L168.683 157.772C171.449 158.791 173.788 160.716 175.319 163.235L175.561 163.633L175.824 163.207C178.77 158.504 182.927 154.681 187.859 152.139L188.022 152.054L188.115 150.944L187.695 151.094Z" fill="#263238"/>
<path opacity="0.2" d="M124.137 11.0532C123.23 12.636 122.673 14.3941 122.501 16.2099L111.91 137.281H144.685L151.271 112.038L149.102 86.7885L155.688 61.5458L153.554 36.3031L160.141 11.0532H124.137Z" fill="black"/>
<path d="M150.674 29.19L157.26 3.94727H74.3767L67.7975 29.19L69.9598 54.4327L63.3806 79.6825L65.5428 104.925L58.9565 130.168H141.84L148.426 104.925L146.257 79.6825L152.843 54.4327L150.674 29.19Z" fill="#407BFF"/>
<path opacity="0.7" d="M150.674 29.19L157.26 3.94727H74.3767L67.7975 29.19L69.9598 54.4327L63.3806 79.6825L65.5428 104.925L58.9565 130.168H141.84L148.426 104.925L146.257 79.6825L152.843 54.4327L150.674 29.19Z" fill="white"/>
<path opacity="0.5" d="M150.674 29.19H67.7975L74.3767 3.94727H157.26L150.674 29.19Z" fill="white"/>
<path opacity="0.5" d="M146.257 79.6829H63.3806L69.9598 54.4331H152.843L146.257 79.6829Z" fill="white"/>
<path opacity="0.5" d="M141.84 130.168H58.9565L65.5428 104.925H148.426L141.84 130.168Z" fill="white"/>
<path opacity="0.2" d="M139.585 39.738C138.735 39.9838 137.853 40.1036 136.968 40.0937C135.768 40.1468 134.573 39.9025 133.49 39.3824C133.294 39.2663 133.07 39.2049 132.843 39.2046C132.634 39.2075 132.429 39.2612 132.245 39.3611H132.202C131.885 39.5394 131.545 39.6757 131.192 39.7665C130.396 39.9766 129.576 40.0794 128.753 40.0723C128.504 40.0723 128.262 40.0723 128.042 40.0723C127.403 40.0313 126.771 39.9192 126.157 39.738C126.066 39.7112 125.973 39.6945 125.879 39.6883C125.723 39.6755 125.565 39.6952 125.417 39.7462C125.269 39.7972 125.132 39.8784 125.017 39.9846C124.901 40.0908 124.809 40.2198 124.745 40.3634C124.682 40.507 124.649 40.6622 124.649 40.8192V41.5873H92.3859C91.7931 41.5873 91.2061 41.7042 90.6586 41.9313C90.111 42.1583 89.6136 42.4911 89.1947 42.9106C88.7759 43.3301 88.4439 43.8281 88.2177 44.376C87.9915 44.9239 87.8756 45.5111 87.8765 46.1038V50.6488C87.8746 51.2422 87.9899 51.8301 88.2157 52.3789C88.4414 52.9276 88.7733 53.4264 89.1922 53.8467C89.6111 54.2669 90.1089 54.6003 90.6569 54.8278C91.205 55.0553 91.7925 55.1724 92.3859 55.1724H129.037H129.279C129.67 55.4996 130.083 55.8268 130.524 56.1611C130.965 56.4954 131.591 56.9577 132.167 57.3703C132.363 57.5126 132.6 57.5892 132.843 57.5892C133.085 57.5892 133.322 57.5126 133.518 57.3703C138.127 54.0273 141.086 51.7228 141.086 45.3926V40.8405C141.088 40.6585 141.047 40.4785 140.966 40.3156C140.885 40.1526 140.766 40.0114 140.619 39.9036C140.472 39.7959 140.302 39.7246 140.122 39.6958C139.942 39.667 139.758 39.6815 139.585 39.738Z" fill="black"/>
<path d="M128.333 39.0908H91.6889C89.1945 39.0908 87.1724 41.1129 87.1724 43.6073V48.1523C87.1724 50.6467 89.1945 52.6688 91.6889 52.6688H128.333C130.828 52.6688 132.85 50.6467 132.85 48.1523V43.6073C132.85 41.1129 130.828 39.0908 128.333 39.0908Z" fill="#407BFF"/>
<path d="M136.264 37.5903C135.064 37.6417 133.869 37.3975 132.786 36.8791C132.593 36.7608 132.371 36.6982 132.146 36.6982C131.92 36.6982 131.698 36.7608 131.505 36.8791C130.42 37.3983 129.223 37.6426 128.02 37.5903C127.135 37.5998 126.253 37.48 125.403 37.2347C125.231 37.1771 125.049 37.1611 124.87 37.1881C124.691 37.2151 124.522 37.2843 124.375 37.39C124.228 37.4957 124.109 37.6348 124.027 37.7958C123.944 37.9568 123.902 38.1351 123.902 38.3158V42.8679C123.902 49.2053 126.861 51.5098 131.47 54.8527C131.666 54.995 131.903 55.0716 132.146 55.0716C132.388 55.0716 132.625 54.995 132.821 54.8527C137.43 51.5098 140.389 49.2053 140.389 42.8679V38.3158C140.388 38.1348 140.345 37.9565 140.261 37.7956C140.178 37.6347 140.058 37.4957 139.911 37.3902C139.764 37.2847 139.594 37.2156 139.415 37.1886C139.236 37.1615 139.053 37.1774 138.881 37.2347C138.031 37.4805 137.149 37.6003 136.264 37.5903Z" fill="#407BFF"/>
<path opacity="0.3" d="M136.264 37.5903C135.064 37.6417 133.869 37.3975 132.786 36.8791C132.593 36.7608 132.371 36.6982 132.146 36.6982C131.92 36.6982 131.698 36.7608 131.505 36.8791C130.42 37.3983 129.223 37.6426 128.02 37.5903C127.135 37.5998 126.253 37.48 125.403 37.2347C125.231 37.1771 125.049 37.1611 124.87 37.1881C124.691 37.2151 124.522 37.2843 124.375 37.39C124.228 37.4957 124.109 37.6348 124.027 37.7958C123.944 37.9568 123.902 38.1351 123.902 38.3158V42.8679C123.902 49.2053 126.861 51.5098 131.47 54.8527C131.666 54.995 131.903 55.0716 132.146 55.0716C132.388 55.0716 132.625 54.995 132.821 54.8527C137.43 51.5098 140.389 49.2053 140.389 42.8679V38.3158C140.388 38.1348 140.345 37.9565 140.261 37.7956C140.178 37.6347 140.058 37.4957 139.911 37.3902C139.764 37.2847 139.594 37.2156 139.415 37.1886C139.236 37.1615 139.053 37.1774 138.881 37.2347C138.031 37.4805 137.149 37.6003 136.264 37.5903Z" fill="white"/>
<path opacity="0.2" d="M131.505 36.8649C130.42 37.3841 129.223 37.6284 128.02 37.5761C127.135 37.5851 126.253 37.4653 125.403 37.2205C125.231 37.1629 125.049 37.1469 124.87 37.1739C124.691 37.2009 124.522 37.2701 124.375 37.3758C124.228 37.4815 124.109 37.6205 124.027 37.7815C123.944 37.9425 123.902 38.1208 123.902 38.3016V42.8537C123.902 49.191 126.861 51.4955 131.47 54.8385C131.676 54.9882 131.926 55.0657 132.181 55.059V36.6799C131.943 36.6752 131.708 36.7394 131.505 36.8649Z" fill="white"/>
<path d="M138.753 41.6304C135.98 42.7166 133.511 44.4564 131.555 46.7017C130.191 45.6961 128.592 45.057 126.911 44.8453H126.69V45.9335L126.811 45.9762C128.681 46.6511 130.293 47.8947 131.42 49.5325L131.598 49.7885L131.747 49.5112C133.382 46.4724 135.872 43.9798 138.91 42.3416L139.016 42.2918V41.5806L138.753 41.6304Z" fill="#263238"/>
<path d="M155.795 11.0459H152.651C152.247 11.0534 151.845 10.9746 151.474 10.8147C151.102 10.6548 150.769 10.4175 150.496 10.1186C150.224 9.81978 150.018 9.46621 149.893 9.08154C149.768 8.69687 149.726 8.28993 149.771 7.88787L150.048 4.74409C150.133 3.88909 150.53 3.09517 151.161 2.51302C151.793 1.93086 152.617 1.60101 153.476 1.58608H156.62C157.025 1.57754 157.427 1.6556 157.8 1.81504C158.172 1.97448 158.506 2.21163 158.78 2.51061C159.053 2.80959 159.259 3.1635 159.385 3.54869C159.511 3.93387 159.552 4.34143 159.508 4.74409L159.23 7.88787C159.135 8.73998 158.734 9.52882 158.103 10.1091C157.472 10.6894 156.652 11.0221 155.795 11.0459Z" fill="#407BFF"/>
<path d="M157.104 4.73706L156.421 3.99023L154.7 5.56924L153.263 3.99023L152.445 4.73706L153.889 6.31606L152.167 7.89507L152.857 8.64189L154.572 7.06289L156.008 8.64189L156.826 7.89507L155.382 6.31606L157.104 4.73706Z" fill="white"/>
<path d="M85.5365 38.1665C87.3573 40.1509 89.0928 42.2065 90.8212 44.2763C92.5496 46.346 94.221 48.4585 95.8854 50.578C95.9565 50.6705 95.928 50.6349 95.9423 50.6634C95.9565 50.6918 95.9423 50.699 95.9423 50.7061C95.9547 50.7324 95.9715 50.7565 95.9921 50.7772C96.0527 50.8634 96.1298 50.9366 96.2189 50.9928C96.308 51.0489 96.4074 51.0869 96.5113 51.1044C96.5915 51.1152 96.6729 51.1152 96.7531 51.1044C96.7957 51.1077 96.8385 51.1077 96.8811 51.1044H96.9452C96.9807 51.1044 96.9452 51.1044 97.059 51.0617L98.8371 50.0944C101.227 48.8283 103.638 47.5907 106.128 46.4812L108.212 49.063C106.206 50.9052 104.115 53.2168 102.002 54.9096L100.409 56.1614C100.31 56.2423 100.205 56.3159 100.096 56.382C99.9753 56.4678 99.8494 56.5462 99.7191 56.6167C99.4616 56.765 99.1956 56.898 98.9225 57.015C98.3714 57.2465 97.7929 57.4067 97.2012 57.4915C96.0046 57.6672 94.7831 57.5451 93.6449 57.1359C93.0659 56.9303 92.5161 56.6506 92.009 56.3037C91.7529 56.133 91.5111 55.9338 91.2977 55.7418C91.1768 55.6422 91.0772 55.5284 90.9634 55.4217L90.6789 55.1372C88.7941 53.2026 86.9377 51.2537 85.1169 49.2693C83.296 47.2849 81.4965 45.2862 79.7753 43.2094L85.5365 38.1665Z" fill="#B55B52"/>
<path d="M105.189 48.0456L106.846 42.7183L111.213 44.8947C111.213 44.8947 110.573 48.7782 107.401 49.4539L105.189 48.0456Z" fill="#B55B52"/>
<path d="M108.589 41.2461L112.529 42.3343L111.206 44.902L106.839 42.7255L108.589 41.2461Z" fill="#B55B52"/>
<path d="M62.577 39.6175C62.1075 41.8793 61.5243 44.1198 60.9197 46.3532C60.3152 48.5865 59.6537 50.7985 58.9638 53.0106L58.7077 53.8427L58.5797 54.2553C58.5625 54.3147 58.5386 54.372 58.5085 54.426C58.4274 54.6548 58.3818 54.8947 58.3734 55.1373C58.3584 55.6541 58.5024 56.163 58.7859 56.5953C58.9258 56.785 59.0804 56.9633 59.2483 57.1288L59.8386 57.776L61.0051 59.0776C61.7661 59.9596 62.5343 60.8416 63.2598 61.7662L60.7775 64.6113C59.7533 64.028 58.7717 63.395 57.7902 62.7691L56.3321 61.8018L55.6208 61.311C55.379 61.1403 55.1798 61.0265 54.7886 60.7064C53.397 59.5204 52.4367 57.9075 52.0574 56.1188C51.8665 55.207 51.8209 54.2709 51.9223 53.3449C51.9223 53.1173 51.9934 52.8612 52.0289 52.6336L52.1072 52.2068L52.2565 51.3533C52.6549 49.0702 53.0816 46.7941 53.5582 44.5323C54.0347 42.2705 54.5468 40.0158 55.1514 37.7896L62.577 39.6175Z" fill="#B55B52"/>
<path d="M60.8273 61.5384L63.7577 60.0376L65.0522 65.0164C65.0522 65.0164 62.6979 65.9197 60.8771 64.7604L60.8273 61.5384Z" fill="#B55B52"/>
<path d="M67.8118 58.4443L67.947 63.0178L64.668 65.1587L63.53 60.1371L67.8118 58.4443Z" fill="#B55B52"/>
<path d="M77.4068 16.1031C77.478 16.4516 77.7269 16.7006 77.9545 16.6579C78.1821 16.6152 78.3173 16.288 78.2461 15.9466C78.175 15.6052 77.9261 15.3492 77.6985 15.3919C77.4709 15.4345 77.3357 15.7688 77.4068 16.1031Z" fill="#263238"/>
<path d="M77.6913 16.7075C78.3316 17.6995 79.1046 18.5993 79.9887 19.3819C79.7828 19.6036 79.5311 19.7776 79.251 19.8919C78.9708 20.0062 78.6692 20.0578 78.367 20.0433L77.6913 16.7075Z" fill="#A02724"/>
<path d="M75.7211 14.4103C75.6801 14.4098 75.6401 14.3976 75.606 14.375C75.5718 14.3524 75.5448 14.3204 75.5283 14.2829C75.5118 14.2454 75.5065 14.2039 75.5129 14.1635C75.5193 14.123 75.5373 14.0852 75.5646 14.0547C75.7873 13.8027 76.0664 13.607 76.3791 13.4834C76.6918 13.3598 77.0293 13.3118 77.3641 13.3434C77.3916 13.3486 77.4179 13.3591 77.4414 13.3744C77.4649 13.3897 77.4852 13.4094 77.501 13.4325C77.5169 13.4557 77.528 13.4817 77.5338 13.5091C77.5396 13.5365 77.5399 13.5648 77.5348 13.5924C77.5305 13.6197 77.5208 13.6458 77.5062 13.6692C77.4917 13.6927 77.4725 13.713 77.45 13.7289C77.4274 13.7448 77.4019 13.756 77.3749 13.7619C77.348 13.7678 77.3201 13.7682 77.293 13.7631C77.0277 13.7376 76.7601 13.776 76.5127 13.875C76.2652 13.974 76.045 14.1307 75.8704 14.3321C75.8325 14.3763 75.7791 14.4043 75.7211 14.4103Z" fill="#263238"/>
<path d="M67.1504 21.0605C67.9328 24.3252 68.7223 30.307 65.9199 32.4763C65.9199 32.4763 67.0153 35.7908 74.4551 35.7908C82.6346 35.7908 78.367 33.657 78.367 33.657C73.9003 32.7893 74.0141 28.9129 74.8107 26.3737L67.1504 21.0605Z" fill="#B55B52"/>
<path d="M65.0451 33.0808C64.5614 32.1775 64.0208 31.139 65.1304 30.8118C66.3538 30.4562 74.199 29.7948 76.5106 30.4633C75.7993 31.7223 77.0014 33.3084 77.0014 33.3084L65.0451 33.0808Z" fill="#263238"/>
<path d="M71.5388 185.704H76.6741L77.1862 175.376H72.0509L71.5388 185.704Z" fill="#B55B52"/>
<path d="M38.9773 184.281L44.1766 184.558L47.3346 174.38L42.1353 174.11L38.9773 184.281Z" fill="#B55B52"/>
<path d="M44.0201 184.146L39.1195 183.086C39.0337 183.067 38.9438 183.077 38.8648 183.116C38.7858 183.155 38.7225 183.22 38.6856 183.3L36.9857 186.991C36.9439 187.081 36.9231 187.179 36.9251 187.278C36.927 187.376 36.9516 187.474 36.9969 187.562C37.0422 187.649 37.1071 187.726 37.1865 187.785C37.266 187.844 37.3579 187.884 37.4551 187.902C39.1693 188.243 40.0228 188.321 42.1779 188.791C43.5009 189.075 46.4953 189.808 48.3232 190.213C50.1512 190.619 50.7842 188.855 50.0729 188.527C46.8723 187.069 45.5351 185.782 44.6673 184.58C44.5116 184.361 44.2815 184.207 44.0201 184.146Z" fill="#263238"/>
<path d="M76.4039 185.185H71.5318C71.4437 185.186 71.3586 185.216 71.2901 185.272C71.2217 185.327 71.174 185.404 71.1548 185.49L70.2729 189.452C70.2501 189.548 70.2495 189.648 70.2712 189.744C70.2929 189.84 70.3363 189.93 70.3981 190.007C70.4598 190.084 70.5383 190.146 70.6276 190.187C70.7168 190.229 70.8144 190.25 70.913 190.249C72.6698 190.249 75.1806 190.114 77.4211 190.114C80.0029 190.114 82.2292 190.256 85.245 190.256C87.0729 190.256 87.585 188.407 86.8168 188.236C83.3245 187.475 80.4795 187.389 77.4637 185.533C77.1486 185.323 76.7823 185.203 76.4039 185.185Z" fill="#263238"/>
<path d="M56.6237 33.984C52.7544 35.8261 51.7018 46.993 51.7018 46.993L61.2825 51.417C62.9019 48.6855 63.7842 45.5803 63.843 42.4053C64.0351 36.637 60.5855 32.1276 56.6237 33.984Z" fill="#263238"/>
<path opacity="0.4" d="M61.8016 40.8691C60.0732 43.5577 60.2368 47.7115 60.8343 51.218L61.2611 51.4172C62.879 48.685 63.7612 45.5802 63.8216 42.4055C63.8216 42.0641 63.8216 41.6942 63.8216 41.3884L61.8016 40.8691Z" fill="black"/>
<path d="M83.3601 33.7138C83.3601 33.7138 88.1113 39.0767 83.6232 72.2642H59.7746C59.611 68.6012 61.9084 50.7414 58.3521 33.4862C60.9878 32.9791 63.6534 32.6418 66.3324 32.4762C69.7106 32.284 73.0969 32.284 76.475 32.4762C78.7984 32.7115 81.1002 33.1252 83.3601 33.7138Z" fill="#407BFF"/>
<path opacity="0.6" d="M83.3601 33.7138C83.3601 33.7138 88.1113 39.0767 83.6232 72.2642H59.7746C59.611 68.6012 61.9084 50.7414 58.3521 33.4862C60.9878 32.9791 63.6534 32.6418 66.3324 32.4762C69.7106 32.284 73.0969 32.284 76.475 32.4762C78.7984 32.7115 81.1002 33.1252 83.3601 33.7138Z" fill="#FAFAFA"/>
<path opacity="0.2" d="M85.444 43.8564L85.3587 43.7782L80.6145 41.2461C80.1309 48.5508 83.3956 53.1313 85.3373 55.1299C85.5807 51.3769 85.6164 47.6134 85.444 43.8564Z" fill="black"/>
<path opacity="0.2" d="M77.1863 175.383L76.9232 180.704H71.7878L72.051 175.383H77.1863Z" fill="black"/>
<path opacity="0.2" d="M42.1353 174.11L47.3346 174.387L45.7058 179.629L40.5065 179.352L42.1353 174.11Z" fill="black"/>
<path d="M65.5003 17.7459C66.6454 22.0135 67.1006 24.5811 69.7678 26.3593C73.7367 29.0336 78.6729 25.961 78.8293 21.4302C78.9645 17.3547 77.0725 11.0458 72.4849 10.1852C71.472 9.98475 70.4247 10.0474 69.4429 10.3671C68.4612 10.6868 67.5778 11.2529 66.8772 12.0113C66.1766 12.7697 65.6821 13.6951 65.4411 14.6991C65.2 15.703 65.2204 16.752 65.5003 17.7459Z" fill="#B55B52"/>
<path d="M75.1663 72.2642C75.1663 72.2642 70.1021 106.341 67.3424 119.115C64.2839 133.127 47.9676 179.359 47.9676 179.359L39.9801 177.631C39.9801 177.631 50.2152 139.934 52.7828 120.388C53.7786 112.756 54.9806 100.473 56.5027 90.2093C57.9751 80.2516 59.7888 72.2713 59.7888 72.2713L75.1663 72.2642Z" fill="#263238"/>
<path d="M49.8809 176.692L48.3873 179.58L39.4111 177.631L40.1651 174.935L49.8809 176.692Z" fill="#407BFF"/>
<path opacity="0.6" d="M49.8809 176.692L48.3873 179.58L39.4111 177.631L40.1651 174.935L49.8809 176.692Z" fill="white"/>
<path opacity="0.6" d="M71.9656 84.4058C66.1119 85.5509 66.7307 107.38 67.4349 118.603C69.1277 110.666 71.5958 95.4019 73.2814 84.5622C72.8736 84.3614 72.4092 84.3062 71.9656 84.4058Z" fill="black"/>
<path d="M83.6233 72.2644C83.6233 72.2644 86.006 105.608 85.5223 119.208C85.0173 133.355 78.3101 179.665 78.3101 179.665H70.7565C70.7565 179.665 70.4791 134.144 70.1448 120.282C69.775 105.132 67.947 72.2573 67.947 72.2573L83.6233 72.2644Z" fill="#263238"/>
<path d="M79.7611 176.664C79.7966 176.664 79.3343 179.8 79.3343 179.8H70.1448L69.8959 176.998L79.7611 176.664Z" fill="#407BFF"/>
<path opacity="0.6" d="M79.7611 176.664C79.7966 176.664 79.3343 179.8 79.3343 179.8H70.1448L69.8959 176.998L79.7611 176.664Z" fill="white"/>
<path d="M80.579 39.9518C80.579 48.8995 85.3373 52.5839 85.3373 52.5839L93.0972 45.0303C91.2605 41.9607 89.1691 39.0509 86.8452 36.3315C82.3571 31.1891 80.579 34.2048 80.579 39.9518Z" fill="#263238"/>
<path opacity="0.2" d="M78.5305 23.0522C78.3723 23.5007 78.1068 23.9036 77.7572 24.2259C77.4076 24.5482 76.9845 24.7802 76.5247 24.9015C76.019 25.0047 75.5599 25.2679 75.2154 25.6521C74.8708 26.0364 74.6591 26.5214 74.6115 27.0353C75.5324 26.7273 76.3675 26.206 77.0486 25.5138C77.7297 24.8215 78.2375 23.9781 78.5305 23.0522Z" fill="black"/>
<path d="M76.5248 9.24645C78.1181 7.23358 75.6642 7.11267 75.6642 7.11267C76.3043 4.71571 73.4308 6.0031 73.4308 6.0031C71.7096 3.62748 70.7351 6.52232 70.7351 6.52232C68.9499 4.50944 68.6014 7.79547 68.6014 7.79547C66.809 5.24204 65.8986 8.92639 65.8986 8.92639C64.2484 6.27338 63.2384 9.723 63.2384 9.723C59.8315 8.50674 61.4461 12.0488 61.4461 12.0488C58.5441 12.1271 60.877 14.3818 60.877 14.3818C57.3919 14.3818 60.4645 16.3804 60.4645 16.3804C57.6977 18.1941 61.1758 18.6849 61.1758 18.6849C58.9211 22.2412 62.7975 20.9041 62.7975 20.9041C61.2256 24.4035 64.7036 22.86 64.7036 22.86C64.4832 26.2314 66.4249 25.3139 67.3638 24.688C67.5416 25.3992 67.883 26.1105 68.5089 26.1674C69.7252 26.331 69.9314 24.0336 69.9314 24.0336C69.9314 24.0336 71.0552 24.9156 72.0012 24.439C72.9472 23.9625 72.5915 22.7604 72.5915 22.7604C72.7969 22.914 73.0464 22.9969 73.3028 22.9969C73.5592 22.9969 73.8087 22.914 74.0141 22.7604C74.4195 22.4475 74.4195 20.1857 73.9074 19.3891L75.7567 18.6778C75.7567 18.6778 77.1294 18.4858 76.5177 16.672C76.1486 15.6296 76.1163 14.4976 76.4253 13.4358C78.5164 12.4542 76.7951 11.302 76.7951 11.302C79.2205 9.74434 76.5248 9.24645 76.5248 9.24645Z" fill="#263238"/>
<path d="M72.7764 17.9027C73.0659 18.9639 73.6987 19.8993 74.5759 20.5629C75.7353 21.4306 76.603 20.5629 76.5177 19.2613C76.4465 18.0806 75.7495 16.2099 74.4692 15.8543C73.189 15.4987 72.4706 16.6438 72.7764 17.9027Z" fill="#B55B52"/>
</g>
<defs>
<clipPath id="clip0_82_604">
<rect width="275.814" height="200" fill="white"/>
</clipPath>
</defs>
</svg>
