<svg width="154" height="150" viewBox="0 0 154 150" fill="none" xmlns="http://www.w3.org/2000/svg">
<g clip-path="url(#clip0_35_731)">
<path d="M3.54113 117.84H0.643017V143.812H3.54113V117.84Z" fill="#00A7E9"/>
<path d="M11.0673 143.107C11.0673 144.661 10.8143 145.785 10.3084 146.481C9.80247 147.176 8.98382 147.524 7.85246 147.526C7.59253 147.526 7.32662 147.526 7.05773 147.49C6.78883 147.455 6.51993 147.431 6.25999 147.383L5.87159 149.773C6.22754 149.849 6.58772 149.902 6.95016 149.934C7.33857 149.97 7.69711 149.985 8.02875 149.985C10.1022 149.985 11.6101 149.379 12.5522 148.166C13.4943 146.953 13.9654 145.133 13.9654 142.707V128.724H11.0673V143.107Z" fill="#00A7E9"/>
<path d="M153.165 132.841C152.869 131.998 152.372 131.24 151.716 130.633C150.987 129.982 150.124 129.499 149.188 129.22C148.002 128.866 146.768 128.699 145.531 128.724H141.468L149.878 119.677L147.969 117.944L137.969 128.656V131.094H144.578C145.603 131.067 146.627 131.192 147.616 131.464C148.324 131.658 148.973 132.022 149.508 132.525C149.971 132.988 150.3 133.569 150.461 134.204C150.646 134.919 150.735 135.655 150.727 136.394V137.206C150.737 137.854 150.672 138.501 150.532 139.134C150.426 139.616 150.201 140.065 149.878 140.439C149.541 140.798 149.114 141.06 148.641 141.198C147.997 141.38 147.329 141.463 146.66 141.446H26.4034C25.9466 141.447 25.491 141.4 25.044 141.306C24.6104 141.211 24.2025 141.024 23.8489 140.756C23.4759 140.479 23.1831 140.108 23.0004 139.68C22.7841 139.141 22.6823 138.564 22.7016 137.983V117.84H19.8035V138.408C19.77 139.333 19.952 140.253 20.3353 141.096C20.6723 141.771 21.1893 142.34 21.8292 142.74C22.505 143.156 23.2546 143.438 24.0371 143.57C24.9311 143.724 25.8368 143.8 26.744 143.797H147.333C149.595 143.797 151.21 143.29 152.176 142.277C153.142 141.263 153.625 139.743 153.625 137.717V135.704C153.636 134.73 153.481 133.762 153.165 132.841Z" fill="#00A7E9"/>
<path d="M25.3667 66.9319C27.2908 67.0484 27.9989 66.3014 28.0885 64.4909C28.1791 63.4763 28.3795 62.4745 28.686 61.5031C31.0434 52.8536 39.5734 47.2456 49.0296 48.115C57.482 48.8918 64.9543 56.4269 65.5818 64.9599C65.6953 66.4747 66.2032 66.887 67.6344 66.8751C73.8608 66.8243 80.0903 66.8751 86.3168 66.8572C86.7718 66.8295 87.2247 66.7746 87.6732 66.6928C87.733 66.1939 87.8017 65.7636 87.8345 65.3334C88.7309 53.6633 100.383 45.3932 111.635 48.6677C119.403 50.9384 124.097 56.2506 125.379 64.3026C125.677 66.2238 126.254 67.0723 128.333 66.9169C130.872 66.771 133.416 66.764 135.955 66.896C137.488 66.9498 138.103 66.4837 138.047 64.8494C137.936 61.1685 138.047 57.4816 137.999 53.7947C137.936 47.3651 135.528 41.9214 130.861 37.5324C126.242 33.1882 120.703 31.1775 114.351 31.3717C113.051 31.4105 112.128 31.2999 111.802 29.6089C109.113 15.7726 101.097 6.23571 87.7688 1.8228C66.8785 -5.08189 45.534 8.05524 41.635 29.815C41.4407 30.8966 40.9537 31.3866 39.8782 31.3597C39.1163 31.3418 38.3514 31.3597 37.5895 31.3597C26.983 31.5868 17.6373 39.1906 16.018 49.6567C15.2083 54.8763 15.6176 60.2871 15.4712 65.6083C15.4354 66.8452 16.2929 66.8482 17.1503 66.8482C19.9051 66.887 22.6448 66.7645 25.3667 66.9319ZM51.8411 29.1368C53.3018 23.6606 56.5124 18.8118 60.9838 15.3291C65.4552 11.8464 70.9424 9.92054 76.6096 9.84491C88.0646 9.7254 98.5217 17.6818 101.578 28.85C102.215 31.1715 102.071 31.3806 99.681 31.3806C91.9925 31.3806 84.306 31.3806 76.6215 31.3806C68.937 31.3806 61.2515 31.3806 53.565 31.3806C51.5543 31.3776 51.3362 31.0639 51.8411 29.1368Z" fill="#00A7E9"/>
<path d="M78.0377 113.092C94.1058 112.584 106.039 101.261 109.272 91.3535C106.622 90.2122 103.962 89.035 101.267 87.9565C100.969 87.8429 100.371 88.1985 100.09 88.5062C99.681 88.9723 99.439 89.5878 99.1312 90.1435C91.7007 103.487 74.067 107.374 61.7425 98.3957C58.3844 95.9659 55.653 92.7716 53.7742 89.0769C53.4127 88.3747 53.1766 87.4754 51.9815 88.0192C49.4419 89.1635 46.8635 90.2272 44.1925 91.3744C48.0108 102.112 60.6191 113.639 78.0377 113.092Z" fill="#00A7E9"/>
<path d="M57.1593 66.8359C57.1414 61.1024 52.3311 56.561 46.3586 56.6387C40.9448 56.7104 36.4512 61.4191 36.499 66.9464C36.4984 68.2973 36.7669 69.6349 37.2888 70.8809C37.8107 72.127 38.5755 73.2566 39.5386 74.2039C40.5018 75.1512 41.644 75.8972 42.8985 76.3983C44.1531 76.8995 45.4949 77.1457 46.8456 77.1227C52.6179 77.057 57.1742 72.5066 57.1593 66.8359Z" fill="#00A7E9"/>
<path d="M116.947 67.0093C116.986 61.2101 112.546 56.6597 106.831 56.6358C101.115 56.6119 96.4154 61.1623 96.3496 66.7763C96.2839 72.3902 100.885 77.0631 106.58 77.1258C112.364 77.1916 116.908 72.7577 116.947 67.0093Z" fill="#00A7E9"/>
</g>
<defs>
<clipPath id="clip0_35_731">
<rect width="152.982" height="150" fill="white" transform="translate(0.643021)"/>
</clipPath>
</defs>
</svg>
