<svg width="21" height="24" viewBox="0 0 21 24" fill="none" xmlns="http://www.w3.org/2000/svg">
<path d="M15.6222 4.28722C16.5311 4.28722 17.2649 3.55347 17.2649 2.64449C17.2649 1.92169 16.5421 0.848437 16.0493 0.213248C15.9983 0.146916 15.9328 0.0931852 15.8578 0.0562085C15.7828 0.0192318 15.7003 0 15.6167 0C15.5331 0 15.4506 0.0192318 15.3755 0.0562085C15.3005 0.0931852 15.235 0.146916 15.1841 0.213248C14.7022 0.848437 13.9794 1.92169 13.9794 2.64449C13.9794 3.55347 14.7132 4.28722 15.6222 4.28722ZM10.1464 4.28722C11.0554 4.28722 11.7891 3.55347 11.7891 2.64449C11.7891 1.92169 11.0663 0.848437 10.5735 0.213248C10.5226 0.146916 10.4571 0.0931852 10.3821 0.0562085C10.3071 0.0192318 10.2246 0 10.1409 0C10.0573 0 9.97478 0.0192318 9.89977 0.0562085C9.82477 0.0931852 9.75926 0.146916 9.70834 0.213248C9.22647 0.848437 8.50367 1.92169 8.50367 2.64449C8.50367 3.55347 9.23742 4.28722 10.1464 4.28722ZM4.67063 4.28722C5.5796 4.28722 6.31336 3.55347 6.31336 2.64449C6.31336 1.92169 5.59056 0.848437 5.09774 0.213248C5.04681 0.146916 4.9813 0.0931852 4.9063 0.0562085C4.83129 0.0192318 4.74878 0 4.66515 0C4.58152 0 4.49901 0.0192318 4.424 0.0562085C4.34899 0.0931852 4.28349 0.146916 4.23256 0.213248C3.7507 0.848437 3.02789 1.92169 3.02789 2.64449C3.02789 3.55347 3.76165 4.28722 4.67063 4.28722ZM17.7249 7.58364C17.5058 6.9375 16.8925 6.47753 16.1697 6.47753H4.12305C3.40025 6.47753 2.79791 6.9375 2.56793 7.58364L0.410475 13.7932C0.333815 14.0231 0.290009 14.2641 0.290009 14.516V22.3573C0.290009 23.2662 1.02376 24 1.93274 24C2.84172 24 3.57547 23.2662 3.57547 22.3573V21.8097H16.7173V22.3573C16.7173 23.2553 17.4511 24 18.3601 24C19.2581 24 20.0028 23.2662 20.0028 22.3573V14.516C20.0028 14.275 19.959 14.0231 19.8823 13.7932L17.7249 7.58364ZM4.12305 18.5242C3.21407 18.5242 2.48032 17.7905 2.48032 16.8815C2.48032 15.9725 3.21407 15.2388 4.12305 15.2388C5.03203 15.2388 5.76578 15.9725 5.76578 16.8815C5.76578 17.7905 5.03203 18.5242 4.12305 18.5242ZM16.1697 18.5242C15.2608 18.5242 14.527 17.7905 14.527 16.8815C14.527 15.9725 15.2608 15.2388 16.1697 15.2388C17.0787 15.2388 17.8125 15.9725 17.8125 16.8815C17.8125 17.7905 17.0787 18.5242 16.1697 18.5242ZM2.48032 13.0485L3.87116 8.86497C4.02448 8.42691 4.44064 8.12026 4.91156 8.12026H15.3812C15.8522 8.12026 16.2683 8.42691 16.4216 8.86497L17.8125 13.0485H2.48032Z" fill="#42A5F5"/>
</svg>
