<svg width="36" height="32" viewBox="0 0 36 32" fill="none" xmlns="http://www.w3.org/2000/svg">
<g clip-path="url(#clip0_23_2)">
<path d="M21.203 18.8273C21.0721 18.85 20.9398 18.8652 20.807 18.873C18.9774 18.873 17.1486 18.8639 15.3197 18.8783C14.8999 18.8783 14.7502 18.7657 14.7178 18.3379C14.5324 15.9288 12.3416 13.8029 9.85541 13.5837C7.0785 13.3386 4.57327 14.9203 3.88181 17.3621C3.79077 17.6342 3.73049 17.9149 3.70202 18.1994C3.67588 18.7109 3.4644 18.9217 2.90363 18.8882C2.10367 18.841 1.29895 18.876 0.496612 18.8745C0.24395 18.8745 -0.00712933 18.8745 0.00316725 18.5244C0.0459377 17.0218 -0.0760372 15.4957 0.161576 14.0221C0.636803 11.068 3.38203 8.92232 6.49793 8.85763C6.72208 8.85306 6.94623 8.85077 7.16959 8.85763C7.48641 8.86524 7.62897 8.7267 7.686 8.42224C8.8313 2.28043 15.0995 -1.42719 21.2347 0.522143C25.149 1.76512 27.5053 4.45735 28.2926 8.36211C28.3893 8.83936 28.6601 8.87056 29.0419 8.85915C30.904 8.80434 32.5332 9.37217 33.89 10.5984C35.261 11.8376 35.9683 13.3736 35.9865 15.1882C35.9968 16.228 35.9691 17.2685 36.0008 18.309C36.0151 18.7695 35.8345 18.9012 35.3838 18.8867C34.6381 18.8495 33.8909 18.8515 33.1455 18.8928C32.5348 18.9362 32.3669 18.6964 32.2742 18.1545C31.898 15.8824 30.5238 14.3821 28.2348 13.7397C24.9344 12.8157 21.5096 15.1494 21.245 18.4437C21.2355 18.5647 21.2157 18.6857 21.1983 18.8243L21.203 18.8273ZM17.9509 8.85306C20.2077 8.85306 22.4648 8.85306 24.7221 8.85306C25.4246 8.85306 25.4666 8.79369 25.2765 8.13833C24.3783 4.98636 21.3076 2.74017 17.9438 2.77442C16.2793 2.79564 14.6677 3.3392 13.3544 4.32227C12.0412 5.30534 11.0984 6.67402 10.6696 8.21977C10.5215 8.76324 10.5857 8.85153 11.1757 8.8523C13.4331 8.85534 15.6904 8.85534 17.9477 8.8523" fill="white"/>
<path d="M8.42498 25.8643C9.20989 25.5415 9.96709 25.2409 10.7132 24.9174C11.0664 24.7652 11.1361 25.0179 11.2415 25.2158C11.7936 26.259 12.5965 27.1608 13.5836 27.8463C17.2032 30.3802 22.3824 29.2826 24.5645 25.5172C24.6548 25.365 24.7229 25.1868 24.8457 25.0552C24.9249 24.9684 25.1078 24.8679 25.1918 24.9029C25.9838 25.2074 26.764 25.54 27.5426 25.862C26.5921 28.6577 23.0881 31.8546 18.3691 31.9969C13.2541 32.1492 9.55047 28.8975 8.42498 25.8673" fill="white"/>
<path d="M9.20831 21.7669C8.81159 21.7732 8.41754 21.7035 8.04913 21.5619C7.68073 21.4203 7.34535 21.2096 7.06254 20.9422C6.77974 20.6747 6.55517 20.3558 6.40194 20.0041C6.2487 19.6524 6.16987 19.2749 6.17003 18.8935C6.15339 17.3324 7.47215 16.0049 9.06258 15.9851C10.8162 15.9631 12.2308 17.2449 12.2308 18.8631C12.2355 20.4615 10.8977 21.7479 9.20514 21.7669" fill="white"/>
<path d="M29.7967 18.9126C29.7856 20.5346 28.4502 21.786 26.7521 21.7677C25.0793 21.7494 23.7273 20.4349 23.7471 18.8464C23.7669 17.2578 25.1474 15.9783 26.8258 15.9844C28.5041 15.9905 29.8078 17.2784 29.7967 18.9126Z" fill="white"/>
</g>
<defs>
<clipPath id="clip0_23_2">
<rect width="36" height="32" fill="white"/>
</clipPath>
</defs>
</svg>
