<svg width="153" height="153" viewBox="0 0 153 153" fill="none" xmlns="http://www.w3.org/2000/svg">
<path d="M76.5 8.5C63.0509 8.5 49.9038 12.4881 38.7213 19.9601C27.5387 27.432 18.823 38.0521 13.6762 50.4775C8.52946 62.9029 7.18284 76.5754 9.80663 89.7661C12.4304 102.957 18.9068 115.073 28.4168 124.583C37.9267 134.093 50.0432 140.57 63.2339 143.193C76.4246 145.817 90.0971 144.471 102.523 139.324C114.948 134.177 125.568 125.461 133.04 114.279C140.512 103.096 144.5 89.9491 144.5 76.5C144.5 58.4653 137.336 41.1692 124.583 28.4167C111.831 15.6643 94.5348 8.5 76.5 8.5V8.5ZM76.5 136C64.732 136 53.2283 132.51 43.4436 125.972C33.6589 119.435 26.0326 110.142 21.5292 99.2697C17.0258 88.3975 15.8475 76.434 18.1433 64.8921C20.4391 53.3503 26.106 42.7484 34.4272 34.4271C42.7484 26.1059 53.3503 20.4391 64.8922 18.1433C76.434 15.8475 88.3975 17.0258 99.2697 21.5292C110.142 26.0326 119.435 33.6588 125.972 43.4436C132.51 53.2283 136 64.732 136 76.5C136 92.2804 129.731 107.414 118.573 118.573C107.414 129.731 92.2804 136 76.5 136Z" fill="#42A5F5"/>
<path d="M119 51.4251C118.204 50.6335 117.127 50.1892 116.004 50.1892C114.881 50.1892 113.804 50.6335 113.007 51.4251L65.8325 98.3876L40.3325 72.8876C39.5547 72.0478 38.4752 71.5515 37.3315 71.5076C36.1878 71.4638 35.0735 71.8761 34.2337 72.6538C33.394 73.4316 32.8976 74.5111 32.8538 75.6548C32.8099 76.7985 33.2222 77.9128 34 78.7526L65.8325 110.5L119 57.4601C119.398 57.065 119.714 56.5949 119.93 56.077C120.146 55.5591 120.257 55.0036 120.257 54.4426C120.257 53.8815 120.146 53.326 119.93 52.8081C119.714 52.2902 119.398 51.8202 119 51.4251Z" fill="#42A5F5"/>
</svg>
