<svg width="23" height="24" viewBox="0 0 23 24" fill="none" xmlns="http://www.w3.org/2000/svg">
<path d="M9.79931 0.504154C10.1418 0.180394 10.5951 0 11.0664 0C11.5377 0 11.9911 0.180394 12.3335 0.504154L21.2678 8.94967C21.8211 9.47164 22.1328 10.2002 22.1328 10.9601V21.2334C22.1328 21.9671 21.8414 22.6708 21.3225 23.1897C20.8037 23.7085 20.1 24 19.3662 24H15.6774C15.314 24 14.954 23.9284 14.6183 23.7892C14.2825 23.6501 13.9774 23.4461 13.7205 23.189C13.4636 22.9319 13.2598 22.6267 13.1209 22.2908C12.982 21.955 12.9106 21.595 12.9108 21.2316V16.6205C12.9108 16.376 12.8137 16.1414 12.6407 15.9684C12.4678 15.7955 12.2332 15.6983 11.9886 15.6983H10.1442C9.89963 15.6983 9.66507 15.7955 9.49212 15.9684C9.31917 16.1414 9.22201 16.376 9.22201 16.6205V21.2316C9.22201 21.9653 8.93053 22.669 8.41169 23.1878C7.89286 23.7067 7.18916 23.9982 6.45541 23.9982H2.7666C2.03286 23.9982 1.32916 23.7067 0.81032 23.1878C0.291481 22.669 0 21.9653 0 21.2316V10.9582C0 10.1983 0.313548 9.46979 0.866869 8.94783L9.79931 0.500465V0.504154ZM11.0664 1.84319L2.13213 10.2906C2.04143 10.3765 1.96916 10.4801 1.91969 10.5948C1.87023 10.7096 1.84462 10.8332 1.8444 10.9582V21.2316C1.8444 21.4761 1.94156 21.7107 2.11451 21.8836C2.28746 22.0566 2.52202 22.1538 2.7666 22.1538H6.45541C6.69999 22.1538 6.93456 22.0566 7.1075 21.8836C7.28045 21.7107 7.37761 21.4761 7.37761 21.2316V16.6205C7.37761 15.8868 7.66909 15.1831 8.18793 14.6643C8.70677 14.1454 9.41047 13.8539 10.1442 13.8539H11.9886C12.7224 13.8539 13.4261 14.1454 13.9449 14.6643C14.4637 15.1831 14.7552 15.8868 14.7552 16.6205V21.2316C14.7552 21.4761 14.8524 21.7107 15.0253 21.8836C15.1983 22.0566 15.4328 22.1538 15.6774 22.1538H19.3662C19.6108 22.1538 19.8454 22.0566 20.0183 21.8836C20.1913 21.7107 20.2884 21.4761 20.2884 21.2316V10.9582C20.2885 10.8329 20.263 10.709 20.2135 10.5938C20.164 10.4787 20.0916 10.3749 20.0007 10.2887L11.0664 1.84319Z" fill="#444444"/>
</svg>
