<svg width="23" height="24" viewBox="0 0 23 24" fill="none" xmlns="http://www.w3.org/2000/svg">
<path d="M9.61442 0.671426C10.1305 0.237755 10.783 0 11.4571 0C12.1312 0 12.7837 0.237755 13.2998 0.671426L21.8926 7.89704C22.2125 8.16582 22.4697 8.50131 22.6461 8.87999C22.8226 9.25867 22.9141 9.67138 22.9142 10.0892V22.0905C22.9142 22.5969 22.713 23.0826 22.3549 23.4407C21.9968 23.7988 21.5111 24 21.0047 24H15.7535C15.2471 24 14.7614 23.7988 14.4033 23.4407C14.0452 23.0826 13.844 22.5969 13.844 22.0905V15.4072H9.07021V22.0905C9.07021 22.5969 8.86903 23.0826 8.51092 23.4407C8.15282 23.7988 7.66713 24 7.16069 24H1.90952C1.40308 24 0.917389 23.7988 0.559285 23.4407C0.201181 23.0826 0 22.5969 0 22.0905V10.0882C0.000105653 9.67043 0.0916051 9.25772 0.268082 8.87904C0.444559 8.50035 0.701741 8.16486 1.02159 7.89608L9.61442 0.670471V0.671426Z" fill="#42A5F5"/>
</svg>
