<svg width="28" height="25" viewBox="0 0 28 25" fill="none" xmlns="http://www.w3.org/2000/svg">
<path d="M16.4 6.59108V4.39988C16.4 4.06793 16.3311 3.73959 16.1977 3.43562C16.0643 3.13164 15.8693 2.85865 15.6251 2.63388C15.3808 2.40911 15.0925 2.23746 14.7785 2.12978C14.4645 2.0221 14.1316 1.98073 13.8008 2.00828L4.2008 2.80748C3.60086 2.85745 3.04161 3.13106 2.63396 3.57405C2.22631 4.01705 2.00003 4.59707 2 5.19908V19.9831C2.00003 20.5851 2.22631 21.1651 2.63396 21.6081C3.04161 22.0511 3.60086 22.3247 4.2008 22.3747L13.8008 23.1751C14.1317 23.2026 14.4647 23.1612 14.7788 23.0535C15.0929 22.9457 15.3812 22.774 15.6255 22.5491C15.8698 22.3242 16.0648 22.051 16.1981 21.7469C16.3314 21.4428 16.4002 21.1143 16.4 20.7823V18.5911M15.2 12.5911H26H15.2ZM26 12.5911L22.0004 7.79108L26 12.5911ZM26 12.5911L22.0004 17.3911L26 12.5911Z" stroke="#F04E4E" stroke-width="3" stroke-linecap="round" stroke-linejoin="round"/>
</svg>
