<svg width="34" height="24" viewBox="0 0 34 24" fill="none" xmlns="http://www.w3.org/2000/svg">
<path d="M25.8571 8.39905L25.5355 8.28386L22.8118 3.17724C22.3003 2.21757 21.5375 1.415 20.605 0.855357C19.6726 0.295717 18.6055 5.7978e-05 17.518 4.99874e-09H10.6596C9.40015 -5.13928e-05 8.17264 0.396259 7.151 1.13277C6.12936 1.86928 5.36542 2.90863 4.96744 4.10354L3.66918 7.9983C2.58152 8.45674 1.65325 9.22584 1.00059 10.2093C0.347924 11.1928 -0.000128761 12.3469 3.57327e-08 13.5273V16.1982C3.57327e-08 17.902 1.01509 19.3658 2.47172 20.0257C2.66035 21.1065 3.21358 22.0901 4.03925 22.8125C4.86492 23.535 5.91319 23.9527 7.00945 23.9962C8.10571 24.0397 9.18378 23.7063 10.0641 23.0515C10.9444 22.3968 11.5738 21.4601 11.8475 20.3977H21.7487C22.0224 21.4601 22.6518 22.3968 23.5321 23.0515C24.4124 23.7063 25.4905 24.0397 26.5868 23.9962C27.683 23.9527 28.7313 23.535 29.5569 22.8125C30.3826 22.0901 30.9358 21.1065 31.1245 20.0257C31.8611 19.6932 32.4861 19.1552 32.9245 18.4763C33.363 17.7974 33.5962 17.0064 33.5962 16.1982V15.3847C33.596 14.1462 33.2126 12.9382 32.4985 11.9263C31.7844 10.9145 30.7747 10.1484 29.6079 9.7333L25.9843 8.44464V8.39905H25.8571ZM10.6596 2.39973H13.1985V8.39905H6.06411L7.24238 4.86185C7.48127 4.1446 7.93993 3.52076 8.5533 3.07883C9.16666 2.63689 9.9036 2.39929 10.6596 2.39973ZM15.5982 2.39973H17.518C18.1706 2.3995 18.8109 2.57667 19.3706 2.91228C19.9302 3.2479 20.3881 3.72935 20.6953 4.30511L22.879 8.39905H15.5982V2.39973ZM25.4443 10.7988L28.8039 11.9938C29.5039 12.243 30.1097 12.7027 30.538 13.3098C30.9664 13.9169 31.1964 14.6416 31.1965 15.3847V16.1982C31.1965 16.6181 31.0525 17.0045 30.8125 17.3116C30.4194 16.389 29.7472 15.6127 28.8903 15.0917C28.0333 14.5708 27.0347 14.3313 26.0347 14.4071C25.0347 14.4828 24.0835 14.8699 23.3148 15.5139C22.5461 16.158 21.9984 17.0267 21.7487 17.998H11.8475C11.5978 17.0267 11.0501 16.158 10.2814 15.5139C9.51268 14.8699 8.56151 14.4828 7.5615 14.4071C6.56149 14.3313 5.56288 14.5708 4.70593 15.0917C3.84899 15.6127 3.17677 16.389 2.78369 17.3116C2.53394 16.9943 2.39865 16.602 2.39973 16.1982V13.5273C2.39973 12.4474 2.87967 11.4635 3.64759 10.7988H25.4443ZM4.79946 19.1978C4.79946 18.5614 5.05228 17.951 5.50232 17.501C5.95236 17.0509 6.56274 16.7981 7.19919 16.7981C7.83563 16.7981 8.44601 17.0509 8.89605 17.501C9.34609 17.951 9.59891 18.5614 9.59891 19.1978C9.59891 19.8343 9.34609 20.4447 8.89605 20.8947C8.44601 21.3447 7.83563 21.5976 7.19919 21.5976C6.56274 21.5976 5.95236 21.3447 5.50232 20.8947C5.05228 20.4447 4.79946 19.8343 4.79946 19.1978ZM26.397 16.7981C27.0335 16.7981 27.6438 17.0509 28.0939 17.501C28.5439 17.951 28.7967 18.5614 28.7967 19.1978C28.7967 19.8343 28.5439 20.4447 28.0939 20.8947C27.6438 21.3447 27.0335 21.5976 26.397 21.5976C25.7606 21.5976 25.1502 21.3447 24.7001 20.8947C24.2501 20.4447 23.9973 19.8343 23.9973 19.1978C23.9973 18.5614 24.2501 17.951 24.7001 17.501C25.1502 17.0509 25.7606 16.7981 26.397 16.7981Z" fill="#444444"/>
</svg>
