<svg width="28" height="28" viewBox="0 0 28 28" fill="none" xmlns="http://www.w3.org/2000/svg">
<path d="M14 2C15.5913 2 17.1174 2.63214 18.2426 3.75736C19.3679 4.88258 20 6.4087 20 8C20 9.5913 19.3679 11.1174 18.2426 12.2426C17.1174 13.3679 15.5913 14 14 14C12.4087 14 10.8826 13.3679 9.75736 12.2426C8.63214 11.1174 8 9.5913 8 8C8 6.4087 8.63214 4.88258 9.75736 3.75736C10.8826 2.63214 12.4087 2 14 2V2ZM14 17C20.63 17 26 19.685 26 23V26H2V23C2 19.685 7.37 17 14 17Z" stroke="#444444" stroke-width="2.5"/>
</svg>
