<svg width="20" height="24" viewBox="0 0 20 24" fill="none" xmlns="http://www.w3.org/2000/svg">
<path d="M1.30934 3.61169C0.517135 3.96378 0 4.75599 0 5.62522V10.7966C0 16.9032 4.2251 22.6136 9.90258 24C15.5801 22.6136 19.8052 16.9032 19.8052 10.7966V5.62522C19.8052 4.75599 19.288 3.96378 18.4958 3.61169L10.7938 0.189799C10.2217 -0.0632665 9.57249 -0.0632665 9.01135 0.189799L1.30934 3.61169ZM9.90258 6.39542C10.5077 6.39542 11.0029 6.89054 11.0029 7.4957C11.0029 8.10086 10.5077 8.59599 9.90258 8.59599C9.29742 8.59599 8.80229 8.10086 8.80229 7.4957C8.80229 6.89054 9.29742 6.39542 9.90258 6.39542ZM9.90258 10.7966C10.5077 10.7966 11.0029 11.2917 11.0029 11.8968V16.298C11.0029 16.9032 10.5077 17.3983 9.90258 17.3983C9.29742 17.3983 8.80229 16.9032 8.80229 16.298V11.8968C8.80229 11.2917 9.29742 10.7966 9.90258 10.7966Z" fill="#42A5F5"/>
</svg>
