<svg width="153" height="153" viewBox="0 0 153 153" fill="none" xmlns="http://www.w3.org/2000/svg">
<g clip-path="url(#clip0_35_2)">
<path d="M76.5 8.5C63.0509 8.5 49.9038 12.4881 38.7213 19.9601C27.5387 27.432 18.823 38.0521 13.6762 50.4775C8.52946 62.9029 7.18284 76.5754 9.80663 89.7661C12.4304 102.957 18.9068 115.073 28.4168 124.583C37.9267 134.093 50.0432 140.57 63.2339 143.193C76.4246 145.817 90.0971 144.471 102.523 139.324C114.948 134.177 125.568 125.461 133.04 114.279C140.512 103.096 144.5 89.9491 144.5 76.5C144.5 58.4653 137.336 41.1692 124.583 28.4167C111.831 15.6643 94.5348 8.5 76.5 8.5ZM76.5 136C64.732 136 53.2283 132.51 43.4436 125.972C33.6589 119.435 26.0326 110.142 21.5292 99.2697C17.0258 88.3975 15.8475 76.434 18.1433 64.8921C20.4391 53.3503 26.106 42.7484 34.4272 34.4271C42.7484 26.1059 53.3503 20.4391 64.8922 18.1433C76.434 15.8475 88.3975 17.0258 99.2697 21.5292C110.142 26.0326 119.435 33.6588 125.972 43.4436C132.51 53.2283 136 64.732 136 76.5C136 92.2804 129.731 107.414 118.573 118.573C107.414 129.731 92.2804 136 76.5 136Z" fill="#42A5F5"/>
<path d="M76.5 42.125V76.5H110.875M76.5 138.375C42.3274 138.375 14.625 110.673 14.625 76.5C14.625 42.3274 42.3274 14.625 76.5 14.625C110.673 14.625 138.375 42.3274 138.375 76.5C138.375 110.673 110.673 138.375 76.5 138.375Z" stroke="white" stroke-width="8.57143" stroke-linecap="round" stroke-linejoin="round"/>
</g>
<defs>
<clipPath id="clip0_35_2">
<rect width="153" height="153" fill="white"/>
</clipPath>
</defs>
</svg>
