<svg width="24" height="22" viewBox="0 0 24 22" fill="none" xmlns="http://www.w3.org/2000/svg">
<path d="M21.6 4.8V2.4C21.6 1.0764 20.5236 0 19.2 0H3.6C1.6152 0 0 1.6152 0 3.6V18C0 20.6412 2.1528 21.6 3.6 21.6H21.6C22.9236 21.6 24 20.5236 24 19.2V7.2C24 5.8764 22.9236 4.8 21.6 4.8ZM19.2 15.6H16.8V10.8H19.2V15.6ZM3.6 4.8C3.29102 4.78618 2.99929 4.65371 2.78553 4.43018C2.57178 4.20665 2.45248 3.90928 2.45248 3.6C2.45248 3.29072 2.57178 2.99335 2.78553 2.76982C2.99929 2.54629 3.29102 2.41382 3.6 2.4H19.2V4.8H3.6Z" fill="#42A5F5"/>
</svg>
