<svg width="36" height="36" viewBox="0 0 36 36" fill="none" xmlns="http://www.w3.org/2000/svg">
<path d="M34 18H24.4M18 34C26.8368 34 34 26.8368 34 18C34 9.1632 26.8368 2 18 2C9.1632 2 2 9.1632 2 18C2 26.8368 9.1632 34 18 34ZM18 34V24.4V34ZM2 18H11.6H2Z" stroke="#42A5F5" stroke-width="4" stroke-linecap="round" stroke-linejoin="round"/>
<path d="M24.4 17.9999C24.4 19.6972 23.7258 21.3251 22.5255 22.5253C21.3253 23.7256 19.6974 24.3999 18 24.3999C16.3027 24.3999 14.6748 23.7256 13.4746 22.5253C12.2743 21.3251 11.6 19.6972 11.6 17.9999C11.6 16.3025 12.2743 14.6746 13.4746 13.4744C14.6748 12.2741 16.3027 11.5999 18 11.5999C19.6974 11.5999 21.3253 12.2741 22.5255 13.4744C23.7258 14.6746 24.4 16.3025 24.4 17.9999Z" fill="#42A5F5"/>
<path d="M24.4 17.9999C24.4 19.6972 23.7258 21.3251 22.5255 22.5253C21.3253 23.7256 19.6974 24.3999 18 24.3999C16.3027 24.3999 14.6748 23.7256 13.4746 22.5253C12.2743 21.3251 11.6 19.6972 11.6 17.9999C11.6 16.3025 12.2743 14.6746 13.4746 13.4744C14.6748 12.2741 16.3027 11.5999 18 11.5999C19.6974 11.5999 21.3253 12.2741 22.5255 13.4744C23.7258 14.6746 24.4 16.3025 24.4 17.9999Z" fill="#42A5F5"/>
<path d="M24.4 17.9999C24.4 19.6972 23.7258 21.3251 22.5255 22.5253C21.3253 23.7256 19.6974 24.3999 18 24.3999C16.3027 24.3999 14.6748 23.7256 13.4746 22.5253C12.2743 21.3251 11.6 19.6972 11.6 17.9999C11.6 16.3025 12.2743 14.6746 13.4746 13.4744C14.6748 12.2741 16.3027 11.5999 18 11.5999C19.6974 11.5999 21.3253 12.2741 22.5255 13.4744C23.7258 14.6746 24.4 16.3025 24.4 17.9999V17.9999Z" stroke="#42A5F5" stroke-width="4" stroke-linecap="round" stroke-linejoin="round"/>
</svg>
